<svg version="1.1" id="Layer_1" xmlns="http://www.w3.org/2000/svg" xmlns:xlink="http://www.w3.org/1999/xlink" x="0px" y="0px"
	 width="100%" viewBox="0 0 649 384" enable-background="new 0 0 649 384" xml:space="preserve">
<path fill="#010101" opacity="1.000000" stroke="none" 
	d="
M457.000000,385.000000 
	C304.703369,385.000000 152.906769,385.000000 1.055074,385.000000 
	C1.055074,257.067688 1.055074,129.135345 1.055074,1.101502 
	C217.213318,1.101502 433.426697,1.101502 649.820068,1.101502 
	C649.820068,128.999786 649.820068,256.999878 649.820068,385.000000 
	C585.801941,385.000000 521.651001,385.000000 457.000000,385.000000 
M193.142395,88.793320 
	C192.312378,87.191994 191.482376,85.590668 190.652359,83.989342 
	C189.998932,84.504395 189.345520,85.019440 188.692093,85.534492 
	C191.572433,93.099991 185.998993,96.141273 181.445587,99.663170 
	C174.594925,104.961914 174.993423,111.425217 182.258499,116.121620 
	C185.520340,118.230171 187.220810,121.306557 185.111771,125.359360 
	C184.916779,125.734077 185.294174,126.406662 185.718506,127.972961 
	C179.719467,128.668655 173.720413,129.364349 167.574631,130.077072 
	C166.531052,138.762421 172.109253,145.404953 175.115112,153.123840 
	C168.828491,153.123840 163.002838,153.053940 157.179688,153.144424 
	C151.853729,153.227203 150.627289,154.760712 153.179657,159.361923 
	C154.386063,161.536728 157.524902,163.945740 159.835739,163.994507 
	C177.896698,164.375717 195.972321,164.386047 214.035645,164.068405 
	C217.837524,164.001556 221.739258,162.425568 225.334671,160.922379 
	C227.060654,160.200760 228.179733,158.027527 230.435379,155.574600 
	C222.163223,154.570969 215.596512,153.774246 209.029785,152.977524 
	C208.851898,152.510391 208.674011,152.043274 208.496124,151.576157 
	C211.024887,150.252563 213.503967,148.819931 216.097504,147.638504 
	C218.333267,146.620041 220.805176,146.094360 222.982819,144.979858 
	C226.160416,143.353577 227.528275,140.492676 226.559860,137.051941 
	C225.528839,133.388748 222.755646,131.802261 218.961151,132.013016 
	C217.941269,132.069687 216.329010,132.499878 215.990982,132.032959 
	C213.477570,128.561356 210.564178,129.663376 207.578705,130.983032 
	C207.578705,130.983032 207.454117,130.956528 206.876053,130.089218 
	C202.598114,129.721207 198.320175,129.353195 193.131302,128.624619 
	C193.676407,127.354797 193.980606,125.894524 194.808014,124.847855 
	C198.552582,120.110947 199.312622,115.590584 194.701859,110.878426 
	C192.067017,108.185623 192.594559,105.455215 194.946838,102.592606 
	C196.479385,100.727554 197.635483,98.425201 198.466049,96.139198 
	C199.969376,92.001572 197.084106,88.690666 193.142395,88.793320 
M415.153107,63.399464 
	C417.111267,58.772278 419.930450,54.299622 420.796112,49.476364 
	C421.745392,44.186985 417.216125,41.639111 412.404816,44.150475 
	C403.616882,48.737553 398.013245,56.520893 394.250977,65.136864 
	C389.137604,76.846848 385.597198,89.234009 380.838470,101.112923 
	C378.696838,106.458878 375.970917,111.933220 368.694336,114.643715 
	C368.694336,111.888588 368.220734,109.772453 368.779663,107.977890 
	C370.769196,101.589645 373.109253,95.310524 375.329742,88.994713 
	C375.354828,88.923378 375.555206,88.913666 375.673767,88.875183 
	C375.601868,88.799385 375.529938,88.723587 376.382751,89.622398 
	C373.888733,88.644539 372.168121,88.459740 371.209167,87.507713 
	C367.395782,83.721947 363.366608,84.302177 358.874054,86.017143 
	C352.480011,88.457985 348.299103,93.347130 345.188934,98.903999 
	C342.945343,102.912651 341.394501,107.672615 340.950287,112.235298 
	C340.358978,118.309074 345.981079,121.954903 351.646790,119.489685 
	C355.450745,117.834518 358.852478,115.254906 361.733521,113.512604 
	C364.156586,114.964317 366.538208,117.504089 368.942841,117.526039 
	C371.462128,117.549034 374.003479,115.154938 377.034454,113.553467 
	C376.896606,115.235847 377.063202,116.443542 376.674255,117.432831 
	C373.777954,124.799667 371.012726,132.236847 367.643372,139.386688 
	C366.708984,141.369446 364.051300,143.111084 361.848480,143.693695 
	C360.678375,144.003143 358.788849,141.592331 356.066772,139.534607 
	C357.057770,142.434052 357.425751,146.049194 358.557556,146.306625 
	C361.107056,146.886597 364.829468,146.759827 366.669342,145.230286 
	C374.140167,139.019547 378.001892,130.389633 380.814362,121.262131 
	C382.483490,115.845284 384.216309,110.448059 386.063812,104.587326 
	C391.238495,109.224815 396.169830,107.192291 401.025116,104.986694 
	C403.637878,114.661987 408.064392,117.720917 416.764984,115.081001 
	C425.853516,112.323357 431.081970,104.980370 435.708374,97.248344 
	C435.866608,96.983887 435.228271,96.242805 435.332428,96.445206 
	C430.892792,100.765152 426.881104,105.639839 421.892975,109.111496 
	C419.409027,110.840248 414.954285,110.756615 411.751526,109.988876 
	C410.226288,109.623260 409.543549,105.742905 408.309357,103.089546 
	C418.528259,101.686028 425.065582,96.993073 428.877930,89.023888 
	C429.836609,87.019951 429.859192,83.307983 428.604736,81.855957 
	C427.321442,80.370605 423.713470,79.816063 421.519653,80.384506 
	C412.753632,82.655922 407.453033,89.031448 403.795410,96.964439 
	C400.718231,103.638512 393.884796,105.829330 386.140015,101.583099 
	C388.747223,97.974228 391.180481,94.437737 393.789185,91.035805 
	C397.444397,86.269157 401.230255,81.602669 405.243134,76.269485 
	C408.417633,72.173683 411.592102,68.077881 415.153107,63.399464 
M563.131775,148.421448 
	C561.176453,150.645065 559.496643,153.214844 557.216248,155.030060 
	C549.002991,161.567749 540.725708,168.042877 532.215027,174.184723 
	C519.897278,183.074112 506.302338,181.069260 494.818817,173.288757 
	C490.802551,170.567627 490.318115,167.186783 493.152252,163.584518 
	C502.784668,151.341553 515.167603,144.281631 530.362000,149.746460 
	C532.538391,150.529221 536.543396,150.254700 537.772766,148.818283 
	C540.459839,145.678680 542.659241,141.612991 539.761536,137.096024 
	C538.718689,135.470413 537.814453,133.748291 536.943665,132.021423 
	C534.426270,127.029045 523.799438,123.114403 518.782532,125.441933 
	C507.869507,130.504929 499.806976,139.203262 491.683350,147.594971 
	C485.407654,154.077728 480.030640,161.460556 474.525940,168.651337 
	C468.615540,176.372086 462.828003,184.203690 457.366486,192.244766 
	C454.244446,196.841385 454.600006,202.326843 458.415436,206.043823 
	C463.007660,210.517517 468.739594,213.818466 473.957733,217.654877 
	C475.091064,218.488113 476.137787,219.439163 477.224426,220.335938 
	C476.398743,221.281311 475.701508,222.392624 474.727692,223.146683 
	C463.516083,231.828110 450.763062,234.309174 436.694946,234.680130 
	C420.804840,235.099136 413.608978,220.129730 416.514587,208.711044 
	C419.309326,197.728165 422.016235,186.719543 424.487823,175.661011 
	C424.921417,173.720993 424.004425,171.479126 423.711182,169.376648 
	C422.353027,170.783997 420.417664,171.954727 419.728302,173.636276 
	C414.359863,186.731949 409.635193,200.105820 403.881805,213.024185 
	C400.247162,221.185303 395.979523,229.315536 390.589386,236.387741 
	C381.412842,248.428040 369.730164,258.051971 357.336823,266.785645 
	C350.529633,271.582733 343.979095,276.752441 337.454803,281.932922 
	C336.534363,282.663788 336.423065,284.413727 335.937256,285.692017 
	C337.206268,285.836304 338.574371,286.363983 339.728973,286.065552 
	C351.321747,283.069397 362.892242,279.983765 374.435852,276.802979 
	C376.616821,276.201996 379.445801,275.660034 380.616272,274.082275 
	C385.612061,267.348145 390.183563,260.290771 394.724304,253.231964 
	C396.349396,250.705688 397.450806,247.842545 399.249481,244.206909 
	C400.039062,246.281921 400.425812,247.267822 400.790588,248.261795 
	C403.818939,256.513458 407.632874,264.644653 416.693848,267.247772 
	C432.742371,271.858246 448.623901,269.985535 462.119415,260.106354 
	C473.488525,251.783752 483.489441,241.575531 493.981537,232.075607 
	C507.157196,220.146011 520.068726,207.920273 533.399597,196.168716 
	C538.576660,191.604965 544.073914,186.495102 550.354370,184.334305 
	C557.398254,181.910843 560.831909,177.930191 563.063843,171.485794 
	C565.923096,163.229843 567.791199,154.872070 568.093201,145.135269 
	C566.035400,146.379089 564.827209,147.109375 563.131775,148.421448 
M168.948593,301.710297 
	C153.622040,308.475403 137.992188,313.450500 120.823067,312.276001 
	C110.687752,311.582672 101.272224,308.385956 93.999924,302.092377 
	C83.398094,292.917297 78.639969,280.210846 79.797813,266.036469 
	C80.571808,256.560944 82.509514,247.184662 83.738335,237.739502 
	C84.092117,235.020218 83.792580,232.215942 83.792580,229.450623 
	C83.064072,229.316895 82.335556,229.183151 81.607048,229.049408 
	C80.458878,231.090332 78.797523,233.002213 78.246536,235.193298 
	C74.886208,248.556335 71.339264,261.896851 68.692139,275.408936 
	C65.016754,294.169708 65.639801,312.582245 76.104591,329.518524 
	C80.276108,336.269775 85.831848,341.901947 93.053024,344.869049 
	C103.701210,349.244263 114.926392,350.459991 126.549637,348.823364 
	C143.478073,346.439697 158.653229,339.707336 171.701004,329.266205 
	C181.247269,321.626984 189.983337,312.497162 197.327576,302.715546 
	C205.054657,292.424011 210.902267,280.681213 217.193314,269.362518 
	C223.882294,257.327911 228.442184,244.418900 230.925354,230.871277 
	C234.122162,213.430405 237.088028,195.946320 240.027756,178.459732 
	C240.937622,173.047546 241.437943,167.566513 242.125778,162.116989 
	C241.656403,161.882080 241.187042,161.647171 240.717667,161.412262 
	C239.583069,162.545212 238.165573,163.506104 237.356216,164.836868 
	C224.893677,185.328003 219.557617,207.801620 217.928284,231.559128 
	C217.339996,240.136993 215.692291,249.213516 212.063934,256.899231 
	C202.946976,276.211121 187.675934,290.251556 168.948593,301.710297 
M325.530975,216.027237 
	C325.249084,219.320053 325.195862,222.652649 324.631226,225.896255 
	C323.803009,230.654327 321.716614,234.697174 316.644135,236.229385 
	C310.095154,238.207611 303.613129,240.585022 296.926178,241.884872 
	C288.089233,243.602631 279.993469,238.355759 278.285065,230.279419 
	C275.018005,214.834930 276.487518,199.274384 277.817047,183.778214 
	C278.786438,172.479065 280.371490,161.233383 281.636505,149.958771 
	C282.739960,140.124207 283.825439,130.287170 284.834381,120.442581 
	C285.774750,111.267288 286.675690,102.086220 287.397034,92.892250 
	C287.494720,91.647331 286.445709,90.312439 285.567291,88.119659 
	C284.466156,89.635719 283.655823,90.360756 283.332764,91.260674 
	C281.517487,96.317543 279.926086,101.455933 278.063293,106.494408 
	C269.721771,129.056793 269.813629,153.035828 266.342041,176.407562 
	C264.476013,188.970398 262.951538,201.621674 262.111450,214.288651 
	C261.262512,227.089020 260.801910,239.988632 261.405243,252.786575 
	C261.822632,261.640503 265.740173,269.879852 274.155914,274.157196 
	C286.417175,280.388977 298.815460,275.959534 309.960205,266.447876 
	C322.571808,255.684296 330.423950,241.398666 337.018250,226.603271 
	C341.822388,215.824493 345.205627,204.394104 348.914795,193.152756 
	C350.992828,186.854950 352.444794,180.350555 354.392517,173.149216 
	C344.546600,176.344482 329.004639,200.165222 325.530975,216.027237 
M296.875824,80.165581 
	C291.525482,89.824722 287.816071,99.942963 288.206970,111.204689 
	C288.471924,118.839104 295.058197,128.844940 301.211029,129.481277 
	C310.276886,130.418854 319.566254,130.952255 326.589355,123.107819 
	C327.704987,121.861725 329.005035,120.780754 330.219849,119.623451 
	C325.146362,121.099754 321.005646,123.854088 316.449402,125.289352 
	C305.647095,128.692184 297.456299,125.394547 294.802032,115.677872 
	C293.544708,111.075043 293.550598,105.787788 294.324890,101.028748 
	C297.482361,81.622116 306.278320,66.056786 325.679962,58.555573 
	C337.604950,53.945038 343.227875,59.631367 342.810333,69.607628 
	C342.385437,79.759163 338.501221,89.078560 328.285889,94.305450 
	C323.454498,96.777527 318.343140,98.836815 313.716766,96.121658 
	C310.832825,94.429115 309.586029,89.947037 307.790894,87.020660 
	C304.677216,91.563316 304.878632,93.326805 309.106964,97.674530 
	C313.905182,102.608231 319.855011,101.846848 325.213287,100.094475 
	C340.257568,95.174400 348.543518,84.095871 350.807587,68.700539 
	C351.634155,63.079990 346.986816,53.183113 338.311859,52.474533 
	C332.026825,51.961166 326.257294,53.015938 320.695740,56.111923 
	C310.628143,61.716293 302.429871,69.088440 296.875824,80.165581 
M155.801514,220.644836 
	C153.742905,219.587982 151.771774,218.240219 149.592453,217.584702 
	C148.310654,217.199173 146.129120,217.372894 145.325211,218.219223 
	C139.436569,224.418747 133.707718,230.778778 128.175156,237.297546 
	C127.416832,238.191025 127.437744,240.584274 128.092056,241.700272 
	C131.931961,248.249710 138.255508,251.961578 144.832870,255.130737 
	C146.163666,255.771942 148.497543,255.386337 149.911499,254.624756 
	C157.755692,250.399719 162.771652,243.403229 166.978317,235.865402 
	C167.715759,234.543976 167.318451,231.621155 166.290298,230.465225 
	C163.283997,227.085388 159.694046,224.224716 155.801514,220.644836 
M347.357269,159.776138 
	C350.291199,156.948242 351.228271,153.897644 347.977509,150.735901 
	C343.702240,146.577713 339.467010,142.345871 334.868530,138.566757 
	C332.727142,136.806946 329.857056,134.900772 326.938934,137.814178 
	C322.039429,142.705795 317.006775,147.475250 312.311737,152.556305 
	C309.546814,155.548584 309.264526,159.383972 312.255341,162.290512 
	C316.493866,166.409561 321.026642,170.328278 325.912994,173.621338 
	C327.571411,174.739014 331.468018,174.682632 332.985443,173.468079 
	C337.942749,169.500275 342.274872,164.751358 347.357269,159.776138 
M199.794876,104.362579 
	C199.462677,105.720947 198.392685,107.582474 198.919525,108.354996 
	C202.038406,112.928223 202.081757,117.656227 199.673615,123.125778 
	C209.127640,117.528877 207.861191,111.051315 203.039001,107.116531 
	C202.048340,106.308174 201.222839,105.297394 199.794876,104.362579 
z"/>
<path fill="#F9F9F9" opacity="1.000000" stroke="none" 
	d="
M563.375366,148.130554 
	C564.827209,147.109375 566.035400,146.379089 568.093201,145.135269 
	C567.791199,154.872070 565.923096,163.229843 563.063843,171.485794 
	C560.831909,177.930191 557.398254,181.910843 550.354370,184.334305 
	C544.073914,186.495102 538.576660,191.604965 533.399597,196.168716 
	C520.068726,207.920273 507.157196,220.146011 493.981537,232.075607 
	C483.489441,241.575531 473.488525,251.783752 462.119415,260.106354 
	C448.623901,269.985535 432.742371,271.858246 416.693848,267.247772 
	C407.632874,264.644653 403.818939,256.513458 400.790588,248.261795 
	C400.425812,247.267822 400.039062,246.281921 399.249481,244.206909 
	C397.450806,247.842545 396.349396,250.705688 394.724304,253.231964 
	C390.183563,260.290771 385.612061,267.348145 380.616272,274.082275 
	C379.445801,275.660034 376.616821,276.201996 374.435852,276.802979 
	C362.892242,279.983765 351.321747,283.069397 339.728973,286.065552 
	C338.574371,286.363983 337.206268,285.836304 335.937256,285.692017 
	C336.423065,284.413727 336.534363,282.663788 337.454803,281.932922 
	C343.979095,276.752441 350.529633,271.582733 357.336823,266.785645 
	C369.730164,258.051971 381.412842,248.428040 390.589386,236.387741 
	C395.979523,229.315536 400.247162,221.185303 403.881805,213.024185 
	C409.635193,200.105820 414.359863,186.731949 419.728302,173.636276 
	C420.417664,171.954727 422.353027,170.783997 423.711182,169.376648 
	C424.004425,171.479126 424.921417,173.720993 424.487823,175.661011 
	C422.016235,186.719543 419.309326,197.728165 416.514587,208.711044 
	C413.608978,220.129730 420.804840,235.099136 436.694946,234.680130 
	C450.763062,234.309174 463.516083,231.828110 474.727692,223.146683 
	C475.701508,222.392624 476.398743,221.281311 477.224426,220.335938 
	C476.137787,219.439163 475.091064,218.488113 473.957733,217.654877 
	C468.739594,213.818466 463.007660,210.517517 458.415436,206.043823 
	C454.600006,202.326843 454.244446,196.841385 457.366486,192.244766 
	C462.828003,184.203690 468.615540,176.372086 474.525940,168.651337 
	C480.030640,161.460556 485.407654,154.077728 491.683350,147.594971 
	C499.806976,139.203262 507.869507,130.504929 518.782532,125.441933 
	C523.799438,123.114403 534.426270,127.029045 536.943665,132.021423 
	C537.814453,133.748291 538.718689,135.470413 539.761536,137.096024 
	C542.659241,141.612991 540.459839,145.678680 537.772766,148.818283 
	C536.543396,150.254700 532.538391,150.529221 530.362000,149.746460 
	C515.167603,144.281631 502.784668,151.341553 493.152252,163.584518 
	C490.318115,167.186783 490.802551,170.567627 494.818817,173.288757 
	C506.302338,181.069260 519.897278,183.074112 532.215027,174.184723 
	C540.725708,168.042877 549.002991,161.567749 557.216248,155.030060 
	C559.496643,153.214844 561.176453,150.645065 563.375366,148.130554 
z"/>
<path fill="#F9F9F9" opacity="1.000000" stroke="none" 
	d="
M169.221481,301.448608 
	C187.675934,290.251556 202.946976,276.211121 212.063934,256.899231 
	C215.692291,249.213516 217.339996,240.136993 217.928284,231.559128 
	C219.557617,207.801620 224.893677,185.328003 237.356216,164.836868 
	C238.165573,163.506104 239.583069,162.545212 240.717667,161.412262 
	C241.187042,161.647171 241.656403,161.882080 242.125778,162.116989 
	C241.437943,167.566513 240.937622,173.047546 240.027756,178.459732 
	C237.088028,195.946320 234.122162,213.430405 230.925354,230.871277 
	C228.442184,244.418900 223.882294,257.327911 217.193314,269.362518 
	C210.902267,280.681213 205.054657,292.424011 197.327576,302.715546 
	C189.983337,312.497162 181.247269,321.626984 171.701004,329.266205 
	C158.653229,339.707336 143.478073,346.439697 126.549637,348.823364 
	C114.926392,350.459991 103.701210,349.244263 93.053024,344.869049 
	C85.831848,341.901947 80.276108,336.269775 76.104591,329.518524 
	C65.639801,312.582245 65.016754,294.169708 68.692139,275.408936 
	C71.339264,261.896851 74.886208,248.556335 78.246536,235.193298 
	C78.797523,233.002213 80.458878,231.090332 81.607048,229.049408 
	C82.335556,229.183151 83.064072,229.316895 83.792580,229.450623 
	C83.792580,232.215942 84.092117,235.020218 83.738335,237.739502 
	C82.509514,247.184662 80.571808,256.560944 79.797813,266.036469 
	C78.639969,280.210846 83.398094,292.917297 93.999924,302.092377 
	C101.272224,308.385956 110.687752,311.582672 120.823067,312.276001 
	C137.992188,313.450500 153.622040,308.475403 169.221481,301.448608 
z"/>
<path fill="#F8F8F8" opacity="1.000000" stroke="none" 
	d="
M325.650269,215.628708 
	C329.004639,200.165222 344.546600,176.344482 354.392517,173.149216 
	C352.444794,180.350555 350.992828,186.854950 348.914795,193.152756 
	C345.205627,204.394104 341.822388,215.824493 337.018250,226.603271 
	C330.423950,241.398666 322.571808,255.684296 309.960205,266.447876 
	C298.815460,275.959534 286.417175,280.388977 274.155914,274.157196 
	C265.740173,269.879852 261.822632,261.640503 261.405243,252.786575 
	C260.801910,239.988632 261.262512,227.089020 262.111450,214.288651 
	C262.951538,201.621674 264.476013,188.970398 266.342041,176.407562 
	C269.813629,153.035828 269.721771,129.056793 278.063293,106.494408 
	C279.926086,101.455933 281.517487,96.317543 283.332764,91.260674 
	C283.655823,90.360756 284.466156,89.635719 285.567291,88.119659 
	C286.445709,90.312439 287.494720,91.647331 287.397034,92.892250 
	C286.675690,102.086220 285.774750,111.267288 284.834381,120.442581 
	C283.825439,130.287170 282.739960,140.124207 281.636505,149.958771 
	C280.371490,161.233383 278.786438,172.479065 277.817047,183.778214 
	C276.487518,199.274384 275.018005,214.834930 278.285065,230.279419 
	C279.993469,238.355759 288.089233,243.602631 296.926178,241.884872 
	C303.613129,240.585022 310.095154,238.207611 316.644135,236.229385 
	C321.716614,234.697174 323.803009,230.654327 324.631226,225.896255 
	C325.195862,222.652649 325.249084,219.320053 325.650269,215.628708 
z"/>
<path fill="#EAEAEA" opacity="1.000000" stroke="none" 
	d="
M404.960236,76.893341 
	C401.230255,81.602669 397.444397,86.269157 393.789185,91.035805 
	C391.180481,94.437737 388.747223,97.974228 386.140015,101.583099 
	C393.884796,105.829330 400.718231,103.638512 403.795410,96.964439 
	C407.453033,89.031448 412.753632,82.655922 421.519653,80.384506 
	C423.713470,79.816063 427.321442,80.370605 428.604736,81.855957 
	C429.859192,83.307983 429.836609,87.019951 428.877930,89.023888 
	C425.065582,96.993073 418.528259,101.686028 408.309357,103.089546 
	C409.543549,105.742905 410.226288,109.623260 411.751526,109.988876 
	C414.954285,110.756615 419.409027,110.840248 421.892975,109.111496 
	C426.881104,105.639839 430.892792,100.765152 435.332428,96.445206 
	C435.228271,96.242805 435.866608,96.983887 435.708374,97.248344 
	C431.081970,104.980370 425.853516,112.323357 416.764984,115.081001 
	C408.064392,117.720917 403.637878,114.661987 401.025116,104.986694 
	C396.169830,107.192291 391.238495,109.224815 386.063812,104.587326 
	C384.216309,110.448059 382.483490,115.845284 380.814362,121.262131 
	C378.001892,130.389633 374.140167,139.019547 366.669342,145.230286 
	C364.829468,146.759827 361.107056,146.886597 358.557556,146.306625 
	C357.425751,146.049194 357.057770,142.434052 356.066772,139.534607 
	C358.788849,141.592331 360.678375,144.003143 361.848480,143.693695 
	C364.051300,143.111084 366.708984,141.369446 367.643372,139.386688 
	C371.012726,132.236847 373.777954,124.799667 376.674255,117.432831 
	C377.063202,116.443542 376.896606,115.235847 377.034454,113.553467 
	C374.003479,115.154938 371.462128,117.549034 368.942841,117.526039 
	C366.538208,117.504089 364.156586,114.964317 361.733521,113.512604 
	C358.852478,115.254906 355.450745,117.834518 351.646790,119.489685 
	C345.981079,121.954903 340.358978,118.309074 340.950287,112.235298 
	C341.394501,107.672615 342.945343,102.912651 345.188934,98.903999 
	C348.299103,93.347130 352.480011,88.457985 358.874054,86.017143 
	C363.366608,84.302177 367.395782,83.721947 371.209167,87.507713 
	C372.168121,88.459740 373.888733,88.644539 376.382751,89.622398 
	C375.529938,88.723587 375.601868,88.799385 375.673767,88.875183 
	C375.555206,88.913666 375.354828,88.923378 375.329742,88.994713 
	C373.109253,95.310524 370.769196,101.589645 368.779663,107.977890 
	C368.220734,109.772453 368.694336,111.888588 368.694336,114.643715 
	C375.970917,111.933220 378.696838,106.458878 380.838470,101.112923 
	C385.597198,89.234009 389.137604,76.846848 394.250977,65.136864 
	C398.013245,56.520893 403.616882,48.737553 412.404816,44.150475 
	C417.216125,41.639111 421.745392,44.186985 420.796112,49.476364 
	C419.930450,54.299622 417.111267,58.772278 414.636230,63.682137 
	C413.687836,63.958988 413.256256,63.953167 412.919922,63.594719 
	C414.500000,59.985912 416.306702,56.826500 417.327759,53.430847 
	C417.805573,51.841816 416.765961,49.796486 416.414062,47.957962 
	C414.186371,48.653015 411.546387,48.825768 409.835968,50.176056 
	C407.724548,51.842937 406.301300,54.430767 404.728760,56.722256 
	C398.867676,65.263084 394.421326,74.375687 393.852295,85.268494 
	C396.214630,83.845917 398.039062,81.936684 400.027588,80.217209 
	C401.584686,78.870773 403.345093,77.759445 404.969482,76.626053 
	C404.923798,76.708458 404.960236,76.893341 404.960236,76.893341 
M366.875061,99.121216 
	C367.110413,98.331665 367.221771,97.475548 367.603485,96.764549 
	C368.966736,94.225105 370.814911,90.891373 367.892242,89.274734 
	C365.704468,88.064598 361.149811,88.227776 359.340271,89.767303 
	C353.136292,95.045540 348.406494,101.635437 348.128784,110.306511 
	C347.986938,114.734444 350.200684,116.300323 354.436310,114.898346 
	C355.781555,114.453094 357.251556,113.575317 358.058472,112.457878 
	C361.027069,108.346924 363.741333,104.052284 366.875061,99.121216 
M411.313049,99.962402 
	C412.222809,99.574379 413.118713,99.149216 414.044556,98.804512 
	C419.163208,96.898781 422.745392,93.441742 424.101868,88.123047 
	C424.459137,86.722214 423.859344,84.921471 423.208038,83.535049 
	C423.055969,83.211357 420.716339,83.496483 419.700348,84.066658 
	C413.888763,87.327957 410.780762,92.603012 409.257599,98.913162 
	C409.201111,99.147186 410.099182,99.611626 411.313049,99.962402 
M392.366516,88.021088 
	C392.789886,87.579689 393.213257,87.138298 393.636627,86.696877 
	C393.092072,86.843872 392.547516,86.990868 392.366516,88.021088 
z"/>
<path fill="#EBEBEB" opacity="1.000000" stroke="none" 
	d="
M297.020752,79.820267 
	C302.429871,69.088440 310.628143,61.716293 320.695740,56.111923 
	C326.257294,53.015938 332.026825,51.961166 338.311859,52.474533 
	C346.986816,53.183113 351.634155,63.079990 350.807587,68.700539 
	C348.543518,84.095871 340.257568,95.174400 325.213287,100.094475 
	C319.855011,101.846848 313.905182,102.608231 309.106964,97.674530 
	C304.878632,93.326805 304.677216,91.563316 307.790894,87.020660 
	C309.586029,89.947037 310.832825,94.429115 313.716766,96.121658 
	C318.343140,98.836815 323.454498,96.777527 328.285889,94.305450 
	C338.501221,89.078560 342.385437,79.759163 342.810333,69.607628 
	C343.227875,59.631367 337.604950,53.945038 325.679962,58.555573 
	C306.278320,66.056786 297.482361,81.622116 294.324890,101.028748 
	C293.550598,105.787788 293.544708,111.075043 294.802032,115.677872 
	C297.456299,125.394547 305.647095,128.692184 316.449402,125.289352 
	C321.005646,123.854088 325.146362,121.099754 330.219849,119.623451 
	C329.005035,120.780754 327.704987,121.861725 326.589355,123.107819 
	C319.566254,130.952255 310.276886,130.418854 301.211029,129.481277 
	C295.058197,128.844940 288.471924,118.839104 288.206970,111.204689 
	C287.816071,99.942963 291.525482,89.824722 297.020752,79.820267 
z"/>
<path fill="#E9E9E9" opacity="1.000000" stroke="none" 
	d="
M194.042236,128.985168 
	C198.320175,129.353195 202.598114,129.721207 207.041138,131.105667 
	C195.173111,132.773697 183.139999,133.425278 170.488480,134.110336 
	C171.866852,138.294235 172.766342,143.081070 175.016998,147.113861 
	C176.453659,149.688095 179.709839,152.460297 182.466324,152.838181 
	C188.676666,153.689575 195.084320,153.159821 201.409515,153.057556 
	C202.455582,153.040665 203.735107,152.609497 204.491592,151.916550 
	C209.909500,146.953751 213.336868,141.035995 213.043427,134.223907 
	C210.846146,132.916168 209.199677,131.936249 207.553192,130.956345 
	C210.564178,129.663376 213.477570,128.561356 215.990982,132.032959 
	C216.329010,132.499878 217.941269,132.069687 218.961151,132.013016 
	C222.755646,131.802261 225.528839,133.388748 226.559860,137.051941 
	C227.528275,140.492676 226.160416,143.353577 222.982819,144.979858 
	C220.805176,146.094360 218.333267,146.620041 216.097504,147.638504 
	C213.503967,148.819931 211.024887,150.252563 208.496124,151.576157 
	C208.674011,152.043274 208.851898,152.510391 209.029785,152.977524 
	C215.596512,153.774246 222.163223,154.570969 230.435379,155.574600 
	C228.179733,158.027527 227.060654,160.200760 225.334671,160.922379 
	C221.739258,162.425568 217.837524,164.001556 214.035645,164.068405 
	C195.972321,164.386047 177.896698,164.375717 159.835739,163.994507 
	C157.524902,163.945740 154.386063,161.536728 153.179657,159.361923 
	C150.627289,154.760712 151.853729,153.227203 157.179688,153.144424 
	C163.002838,153.053940 168.828491,153.123840 175.115112,153.123840 
	C172.109253,145.404953 166.531052,138.762421 167.574631,130.077072 
	C173.720413,129.364349 179.719467,128.668655 185.613770,127.472412 
	C185.509018,126.971870 185.610458,126.934280 185.414093,127.391052 
	C187.466995,128.227356 189.716232,128.606873 192.311584,128.992706 
	C193.119202,128.994400 193.580719,128.989792 194.042236,128.985168 
M188.227158,160.951935 
	C207.733795,163.386261 219.281097,162.214249 222.730347,157.103012 
	C204.250885,157.103012 186.023529,157.103012 167.796173,157.103012 
	C168.203232,158.780869 169.072205,159.841736 170.016251,159.913376 
	C175.761444,160.349457 181.523712,160.560425 188.227158,160.951935 
M219.306610,135.613770 
	C213.316391,135.417892 215.948425,140.438202 214.904694,143.725586 
	C217.551025,143.363480 220.134811,142.660782 221.730164,141.005463 
	C222.356613,140.355484 220.771042,137.573563 219.306610,135.613770 
z"/>
<path fill="#F9F9F9" opacity="1.000000" stroke="none" 
	d="
M156.067169,220.902710 
	C159.694046,224.224716 163.283997,227.085388 166.290298,230.465225 
	C167.318451,231.621155 167.715759,234.543976 166.978317,235.865402 
	C162.771652,243.403229 157.755692,250.399719 149.911499,254.624756 
	C148.497543,255.386337 146.163666,255.771942 144.832870,255.130737 
	C138.255508,251.961578 131.931961,248.249710 128.092056,241.700272 
	C127.437744,240.584274 127.416832,238.191025 128.175156,237.297546 
	C133.707718,230.778778 139.436569,224.418747 145.325211,218.219223 
	C146.129120,217.372894 148.310654,217.199173 149.592453,217.584702 
	C151.771774,218.240219 153.742905,219.587982 156.067169,220.902710 
z"/>
<path fill="#F7F7F7" opacity="1.000000" stroke="none" 
	d="
M347.102356,160.039490 
	C342.274872,164.751358 337.942749,169.500275 332.985443,173.468079 
	C331.468018,174.682632 327.571411,174.739014 325.912994,173.621338 
	C321.026642,170.328278 316.493866,166.409561 312.255341,162.290512 
	C309.264526,159.383972 309.546814,155.548584 312.311737,152.556305 
	C317.006775,147.475250 322.039429,142.705795 326.938934,137.814178 
	C329.857056,134.900772 332.727142,136.806946 334.868530,138.566757 
	C339.467010,142.345871 343.702240,146.577713 347.977509,150.735901 
	C351.228271,153.897644 350.291199,156.948242 347.102356,160.039490 
z"/>
<path fill="#020202" opacity="1.000000" stroke="none" 
	d="
M207.565948,130.969696 
	C209.199677,131.936249 210.846146,132.916168 213.043427,134.223907 
	C213.336868,141.035995 209.909500,146.953751 204.491592,151.916550 
	C203.735107,152.609497 202.455582,153.040665 201.409515,153.057556 
	C195.084320,153.159821 188.676666,153.689575 182.466324,152.838181 
	C179.709839,152.460297 176.453659,149.688095 175.016998,147.113861 
	C172.766342,143.081070 171.866852,138.294235 170.488480,134.110336 
	C183.139999,133.425278 195.173111,132.773697 207.330170,131.539322 
	C207.454117,130.956528 207.578705,130.983032 207.565948,130.969696 
z"/>
<path fill="#E6E6E6" opacity="1.000000" stroke="none" 
	d="
M185.610458,126.934280 
	C185.610458,126.934280 185.509018,126.971870 185.457397,126.956406 
	C185.294174,126.406662 184.916779,125.734077 185.111771,125.359360 
	C187.220810,121.306557 185.520340,118.230171 182.258499,116.121620 
	C174.993423,111.425217 174.594925,104.961914 181.445587,99.663170 
	C185.998993,96.141273 191.572433,93.099991 188.692093,85.534492 
	C189.345520,85.019440 189.998932,84.504395 190.652359,83.989342 
	C191.482376,85.590668 192.312378,87.191994 193.065460,89.132782 
	C192.988510,89.472244 192.957626,89.439201 192.967834,89.840576 
	C190.487061,93.838593 188.604263,98.155273 185.377441,100.880684 
	C178.834045,106.407326 181.065994,109.975716 186.069916,115.021530 
	C188.789993,117.764389 188.685120,123.862167 185.610458,126.934280 
z"/>
<path fill="#E9E9E9" opacity="1.000000" stroke="none" 
	d="
M192.957626,89.439201 
	C192.957626,89.439201 192.988510,89.472244 192.969238,89.493408 
	C197.084106,88.690666 199.969376,92.001572 198.466049,96.139198 
	C197.635483,98.425201 196.479385,100.727554 194.946838,102.592606 
	C192.594559,105.455215 192.067017,108.185623 194.701859,110.878426 
	C199.312622,115.590584 198.552582,120.110947 194.808014,124.847855 
	C193.980606,125.894524 193.676407,127.354797 193.586761,128.804901 
	C193.580719,128.989792 193.119202,128.994400 192.786667,128.793884 
	C193.024445,126.622543 193.251724,124.653908 193.211533,122.690758 
	C193.163177,120.328949 193.789810,117.202942 192.550629,115.748390 
	C187.704834,110.060432 187.374680,105.017601 192.114395,99.014908 
	C194.051529,96.561623 196.346054,92.929237 192.957626,89.439201 
z"/>
<path fill="#E6E6E6" opacity="1.000000" stroke="none" 
	d="
M200.058044,104.371246 
	C201.222839,105.297394 202.048340,106.308174 203.039001,107.116531 
	C207.861191,111.051315 209.127640,117.528877 199.673615,123.125778 
	C202.081757,117.656227 202.038406,112.928223 198.919525,108.354996 
	C198.392685,107.582474 199.462677,105.720947 200.058044,104.371246 
z"/>
<path fill="#DDDDDD" opacity="1.000000" stroke="none" 
	d="
M405.101685,76.581413 
	C404.960236,76.893341 404.923798,76.708458 405.318054,76.351021 
	C405.565063,75.400566 405.090698,74.578453 405.320953,74.249771 
	C407.757721,70.770477 410.306671,67.369736 412.824707,63.947342 
	C413.256256,63.953167 413.687836,63.958988 414.442993,63.973446 
	C411.592102,68.077881 408.417633,72.173683 405.101685,76.581413 
z"/>
<path fill="#080808" opacity="1.000000" stroke="none" 
	d="
M366.713165,99.473984 
	C363.741333,104.052284 361.027069,108.346924 358.058472,112.457878 
	C357.251556,113.575317 355.781555,114.453094 354.436310,114.898346 
	C350.200684,116.300323 347.986938,114.734444 348.128784,110.306511 
	C348.406494,101.635437 353.136292,95.045540 359.340271,89.767303 
	C361.149811,88.227776 365.704468,88.064598 367.892242,89.274734 
	C370.814911,90.891373 368.966736,94.225105 367.603485,96.764549 
	C367.221771,97.475548 367.110413,98.331665 366.713165,99.473984 
z"/>
<path fill="#010101" opacity="1.000000" stroke="none" 
	d="
M412.919922,63.594719 
	C410.306671,67.369736 407.757721,70.770477 405.320953,74.249771 
	C405.090698,74.578453 405.565063,75.400566 405.363739,76.268616 
	C403.345093,77.759445 401.584686,78.870773 400.027588,80.217209 
	C398.039062,81.936684 396.214630,83.845917 393.852295,85.268494 
	C394.421326,74.375687 398.867676,65.263084 404.728760,56.722256 
	C406.301300,54.430767 407.724548,51.842937 409.835968,50.176056 
	C411.546387,48.825768 414.186371,48.653015 416.414062,47.957962 
	C416.765961,49.796486 417.805573,51.841816 417.327759,53.430847 
	C416.306702,56.826500 414.500000,59.985912 412.919922,63.594719 
z"/>
<path fill="#0A0A0A" opacity="1.000000" stroke="none" 
	d="
M410.932739,99.965546 
	C410.099182,99.611626 409.201111,99.147186 409.257599,98.913162 
	C410.780762,92.603012 413.888763,87.327957 419.700348,84.066658 
	C420.716339,83.496483 423.055969,83.211357 423.208038,83.535049 
	C423.859344,84.921471 424.459137,86.722214 424.101868,88.123047 
	C422.745392,93.441742 419.163208,96.898781 414.044556,98.804512 
	C413.118713,99.149216 412.222809,99.574379 410.932739,99.965546 
z"/>
<path fill="#080808" opacity="1.000000" stroke="none" 
	d="
M392.184753,87.579468 
	C392.547516,86.990868 393.092072,86.843872 393.636658,86.696892 
	C393.213257,87.138298 392.789886,87.579689 392.184753,87.579468 
z"/>
<path fill="#0E0E0E" opacity="1.000000" stroke="none" 
	d="
M187.753723,160.899231 
	C181.523712,160.560425 175.761444,160.349457 170.016251,159.913376 
	C169.072205,159.841736 168.203232,158.780869 167.796173,157.103012 
	C186.023529,157.103012 204.250885,157.103012 222.730347,157.103012 
	C219.281097,162.214249 207.733795,163.386261 187.753723,160.899231 
z"/>
<path fill="#010101" opacity="1.000000" stroke="none" 
	d="
M192.967834,89.840576 
	C196.346054,92.929237 194.051529,96.561623 192.114395,99.014908 
	C187.374680,105.017601 187.704834,110.060432 192.550629,115.748390 
	C193.789810,117.202942 193.163177,120.328949 193.211533,122.690758 
	C193.251724,124.653908 193.024445,126.622543 192.440567,128.787567 
	C189.716232,128.606873 187.466995,128.227356 185.414093,127.391052 
	C188.685120,123.862167 188.789993,117.764389 186.069916,115.021530 
	C181.065994,109.975716 178.834045,106.407326 185.377441,100.880684 
	C188.604263,98.155273 190.487061,93.838593 192.967834,89.840576 
z"/>
<path fill="#070707" opacity="1.000000" stroke="none" 
	d="
M219.749725,135.688156 
	C220.771042,137.573563 222.356613,140.355484 221.730164,141.005463 
	C220.134811,142.660782 217.551025,143.363480 214.904694,143.725586 
	C215.948425,140.438202 213.316391,135.417892 219.749725,135.688156 
z"/>
</svg>